# xmcd
#
# Track frame offsets:
#	150
#	12151
#	28509
#	42349
#	58724
#	72891
#	85397
#	99917
#	114120
#	129579
#	141715
#	159097
#
# Disc length: 2311 seconds
#
# Revision: 1
# Processed by: cddbd v1.5.2PL0 Copyright (c) Steve Scherf et al.
# Submitted via: audiograbber 1.83.01
#
DISCID=9709050c
DTITLE=Glen Campbell - See You There
DYEAR=2013
DGENRE=Country
TTITLE0=Hey Little One
TTITLE1=Wichita Lineman
TTITLE2=Gentle On My Mind
TTITLE3=Postcard From Paris
TTITLE4=Waiting On The Comin' Of My Lord
TTITLE5=What I Wouldn't Give
TTITLE6=Galveston
TTITLE7=By The Time I Get To Phoenix
TTITLE8=There's No Me...Without You
TTITLE9=True Grit
TTITLE10=Rhinestone Cowboy
TTITLE11=Waiting On The Comin' Of My Lord
EXTD=
EXTT0=
EXTT1=
EXTT2=
EXTT3=
EXTT4=
EXTT5=
EXTT6=
EXTT7=
EXTT8=
EXTT9=
EXTT10=
EXTT11=
PLAYORDER=
